#!OML:ASF I:\Actors\actors\Patient Classification 2\Patient 1\Session 1\actor1.ASF
:FULLY-SPECIFIED
:DEGREES
139
root -1.2153 18.1739 5.15693 -1.01397 -10.0284 -4.23733
lowerback 11.1093 -0.123884 -0.24637
upperback 6.63378 -0.237426 -3.02055
thorax 0.679121 -0.0850637 -2.97165
lowerneck -2.35066 -13.1605 -10.23
upperneck 30.8322 -22.1595 13.5313
head 13.6443 -9.92912 3.87082
rclavicle -1.98785e-015 -2.70347e-014
rhumerus -26.084 69.052 -63.1346
rradius 109.164
rwrist -83.3851
rhand 33.4843 -31.024
rfingers 7.12502
rthumb 56.8092 -47.7678
lclavicle -1.98785e-015 -2.70347e-014
lhumerus -27.0054 -65.8461 106.961
lradius 103.633
lwrist 10.6318
lhand -10.733 -36.1005
lfingers 7.12502
lthumb 15.2777 -6.68469
rfemur 12.7496 4.32458 21.4092
rtibia -10.5306
rfoot -8.83527 -13.2478
rtoes 0.994855
lfemur 18.2061 -2.2526 -12.1106
ltibia -17.4749
lfoot -3.78571 21.0213
ltoes -8.36754
140
root -1.22975 18.1696 5.15683 -1.09891 -10.4038 -4.23566
lowerback 11.2508 -0.222108 -0.332282
upperback 6.70813 -0.378391 -3.06619
thorax 0.673622 -0.15776 -2.9565
lowerneck -2.31867 -13.1335 -10.3744
upperneck 30.8144 -22.1236 13.5679
head 13.6492 -9.93198 3.914
rclavicle -1.55052e-014 1.11319e-014
rhumerus -25.4195 69.2611 -62.2093
rradius 109.248
rwrist -83.4927
rhand 33.5387 -31.0775
rfingers 7.12502
rthumb 56.8572 -47.7819
lclavicle -1.55052e-014 1.11319e-014
lhumerus -27.0963 -65.7318 107.239
lradius 103.612
lwrist 10.4854
lhand -10.8366 -36.2407
lfingers 7.12502
lthumb 15.1779 -6.8174
rfemur 12.939 4.55462 21.4776
rtibia -10.7597
rfoot -8.59712 -13.2079
rtoes 0.580498
lfemur 18.4259 -2.11571 -12.0782
ltibia -17.5064
lfoot -3.82191 21.2002
ltoes -8.41063
141
root -1.24717 18.166 5.15368 -1.14017 -10.7377 -4.24106
lowerback 11.3639 -0.325617 -0.442113
upperback 6.79001 -0.52776 -3.10422
thorax 0.691548 -0.235341 -2.91872
lowerneck -2.30606 -13.1148 -10.5118
upperneck 30.8064 -22.0975 13.5944
head 13.6616 -9.93757 3.94902
rclavicle 1.03368e-014 -2.22639e-014
rhumerus -24.6346 69.4328 -61.2392
rradius 109.311
rwrist -83.6186
rhand 33.4908 -31.0503
rfingers 7.12502
rthumb 56.815 -47.7894
lclavicle 1.03368e-014 -2.22639e-014
lhumerus -27.0173 -65.6879 107.31
lradius 103.67
lwrist 10.5281
lhand -10.8262 -36.1424
lfingers 7.12502
lthumb 15.1879 -6.71983
rfemur 13.133 4.78722 21.5668
rtibia -11.0957
rfoot -8.40176 -13.2494
rtoes 0.404514
lfemur 18.5688 -1.88222 -12.003
ltibia -17.5339
lfoot -3.80046 21.2913
ltoes -8.67019
142
root -1.26601 18.1618 5.15174 -1.22837 -11.1033 -4.19416
lowerback 11.5591 -0.370153 -0.575072
upperback 6.847 -0.604657 -3.18358
thorax 0.642861 -0.277031 -2.91808
lowerneck -2.20052 -13.1378 -10.5577
upperneck 30.7312 -22.1356 13.6237
head 13.6234 -9.96979 3.96592
rclavicle 5.56597e-015 -3.02153e-014
rhumerus -24.3558 69.4547 -60.8219
rradius 109.367
rwrist -83.6441
rhand 33.4232 -31.1199
rfingers 7.12502
rthumb 56.7554 -47.9078
lclavicle 5.56597e-015 -3.02153e-014
lhumerus -27.0346 -65.7619 107.427
lradius 103.715
lwrist 10.6904
lhand -10.8086 -35.9676
lfingers 7.12502
lthumb 15.2049 -6.54631
rfemur 13.3859 5.00292 21.6015
rtibia -11.466
rfoot -8.13725 -13.2694
rtoes 0.198123
lfemur 18.7723 -1.5982 -11.9701
ltibia -17.5691
lfoot -3.85962 21.3581
ltoes -8.56538
143
root -1.28638 18.1576 5.14577 -1.30783 -11.4385 -4.14263
lowerback 11.8383 -0.403248 -0.755426
upperback 6.85259 -0.675112 -3.25754
thorax 0.496091 -0.317407 -2.88463
lowerneck -2.05109 -13.1479 -10.6303
upperneck 30.6326 -22.1909 13.7667
head 13.5912 -10.0059 4.03096
rclavicle -8.74653e-015 1.11319e-014
rhumerus -24.3161 69.457 -60.6472
rradius 109.43
rwrist -83.6374
rhand 33.5239 -31.2703
rfingers 7.12502
rthumb 56.8442 -47.9853
lclavicle -8.74653e-015 1.11319e-014
lhumerus -27.1742 -65.8166 107.632
lradius 103.736
lwrist 10.6695
lhand -10.8545 -35.8976
lfingers 7.12502
lthumb 15.1607 -6.47295
rfemur 13.6017 5.14043 21.6353
rtibia -11.8079
rfoot -7.81113 -13.2551
rtoes -0.119247
lfemur 18.9353 -1.20581 -11.9107
ltibia -17.6089
lfoot -3.78786 21.2957
ltoes -8.63894
144
root -1.30708 18.1556 5.13856 -1.27242 -11.6909 -4.19355
lowerback 12.0284 -0.503093 -0.868379
upperback 6.83041 -0.825558 -3.29054
thorax 0.364657 -0.396349 -2.83691
lowerneck -1.97097 -13.122 -10.6813
upperneck 30.6285 -22.1756 13.8071
head 13.5835 -10.0108 4.0625
rclavicle -1.59028e-015 -9.54166e-015
rhumerus -24.0325 69.6101 -60.2792
rradius 109.51
rwrist -83.7136
rhand 33.6077 -31.297
rfingers 7.12502
rthumb 56.9179 -47.9512
lclavicle -1.59028e-015 -9.54166e-015
lhumerus -27.1533 -65.7524 107.622
lradius 103.751
lwrist 10.565
lhand -10.8542 -35.9939
lfingers 7.12502
lthumb 15.161 -6.56933
rfemur 13.703 5.21158 21.7714
rtibia -12.1287
rfoot -7.5421 -13.2348
rtoes -0.258891
lfemur 18.9668 -0.875558 -11.7392
ltibia -17.641
lfoot -3.62967 21.2173
ltoes -9.0547
145
root -1.32508 18.1532 5.13846 -1.26036 -11.9281 -4.2257
lowerback 12.1629 -0.629434 -0.982754
upperback 6.86065 -1.00867 -3.33402
thorax 0.317256 -0.491035 -2.79571
lowerneck -2.07069 -13.0944 -10.624
upperneck 30.679 -22.1217 13.7083
head 13.5932 -9.98622 4.01803
rclavicle 2.26615e-014 1.11319e-014
rhumerus -23.3779 69.8623 -59.6332
rradius 109.571
rwrist -83.791
rhand 33.722 -31.1399
rfingers 7.12502
rthumb 57.0184 -47.7105
lclavicle 2.26615e-014 1.11319e-014
lhumerus -26.8308 -65.6342 107.248
lradius 103.765
lwrist 10.5474
lhand -10.8628 -36.1236
lfingers 7.12502
lthumb 15.1526 -6.69838
rfemur 13.8349 5.26942 21.8649
rtibia -12.4189
rfoot -7.34731 -13.1723
rtoes -0.0912502
lfemur 19.0551 -0.780902 -11.6448
ltibia -17.6709
lfoot -3.63466 21.3359
ltoes -9.10085
146
root -1.34087 18.1485 5.14194 -1.35246 -12.1572 -4.17216
lowerback 12.337 -0.707125 -1.14463
upperback 6.96346 -1.13241 -3.40585
thorax 0.328306 -0.556616 -2.76438
lowerneck -2.32764 -13.1041 -10.5354
upperneck 30.7499 -22.1323 13.6418
head 13.6576 -9.97182 3.95722
rclavicle -1.74931e-014 -6.36111e-015
rhumerus -22.7671 69.9149 -59.0851
rradius 109.561
rwrist -83.846
rhand 33.8559 -31.1119
rfingers 7.12502
rthumb 57.1362 -47.5839
lclavicle -1.74931e-014 -6.36111e-015
lhumerus -26.3421 -65.6146 106.719
lradius 103.776
lwrist 10.4283
lhand -10.9328 -36.0718
lfingers 7.12502
lthumb 15.0853 -6.64148
rfemur 14.047 5.32034 21.8591
rtibia -12.656
rfoot -7.19162 -13.0859
rtoes 0.349549
lfemur 19.2515 -0.748359 -11.6672
ltibia -17.7068
lfoot -3.70477 21.5114
ltoes -8.82766
147
root -1.35699 18.1435 5.14406 -1.43972 -12.3826 -4.13383
lowerback 12.5134 -0.749364 -1.29181
upperback 7.03216 -1.20946 -3.48576
thorax 0.304263 -0.598415 -2.75466
lowerneck -2.51165 -13.1033 -10.3728
upperneck 30.8533 -22.1421 13.5619
head 13.7089 -9.95426 3.88725
rclavicle -3.29983e-014 -1.27222e-014
rhumerus -22.6889 69.8548 -59.1577
rradius 109.531
rwrist -83.8575
rhand 33.7241 -31.3071
rfingers 7.12502
rthumb 57.0203 -47.8762
lclavicle -3.29983e-014 -1.27222e-014
lhumerus -26.0136 -65.6129 106.32
lradius 103.775
lwrist 10.2637
lhand -10.9245 -35.9609
lfingers 7.12502
lthumb 15.0932 -6.53119
rfemur 14.2321 5.36227 21.8696
rtibia -12.8606
rfoot -7.01538 -13.0003
rtoes 0.571841
lfemur 19.4388 -0.638799 -11.6605
ltibia -17.7429
lfoot -3.73768 21.6203
ltoes -8.66938
148
root -1.37283 18.1407 5.14577 -1.41828 -12.5425 -4.16522
lowerback 12.6041 -0.827477 -1.38725
upperback 7.0445 -1.32686 -3.54174
thorax 0.265022 -0.659272 -2.74416
lowerneck -2.58332 -13.058 -10.183
upperneck 30.9202 -22.0907 13.4894
head 13.7071 -9.9154 3.83641
rclavicle 8.34896e-015 5.08889e-014
rhumerus -22.6515 69.911 -59.3652
rradius 109.513
rwrist -83.8144
rhand 33.3953 -31.2887
rfingers 7.12502
rthumb 56.7308 -48.0968
lclavicle 8.34896e-015 5.08889e-014
lhumerus -25.8069 -65.4868 106
lradius 103.76
lwrist 10.2657
lhand -10.8105 -36.0218
lfingers 7.12502
lthumb 15.203 -6.60039
rfemur 14.302 5.31692 21.9423
rtibia -13.0468
rfoot -6.77579 -12.9096
rtoes 0.22663
lfemur 19.5091 -0.490566 -11.5635
ltibia -17.7858
lfoot -3.70616 21.6607
ltoes -8.70183
149
root -1.38618 18.1388 5.14883 -1.35281 -12.5719 -4.22025
lowerback 12.6123 -0.913284 -1.3722
upperback 7.06325 -1.43852 -3.55345
thorax 0.275385 -0.714659 -2.75138
lowerneck -2.57319 -13.0343 -10.1749
upperneck 30.9199 -22.0723 13.52
head 13.7056 -9.90636 3.85118
rclavicle 2.0276e-014 0
rhumerus -22.5202 69.9479 -59.3565
rradius 109.525
rwrist -83.8087
rhand 33.1394 -31.0177
rfingers 7.12502
rthumb 56.5051 -48.0087
lclavicle 2.0276e-014 0
lhumerus -25.6539 -65.4014 105.816
lradius 103.737
lwrist 10.2419
lhand -10.7291 -36.1073
lfingers 7.12502
lthumb 15.2815 -6.69182
rfemur 14.3406 5.26647 22.0446
rtibia -13.2168
rfoot -6.61969 -12.9172
rtoes -0.124806
lfemur 19.507 -0.407008 -11.439
ltibia -17.8341
lfoot -3.64671 21.6639
ltoes -8.779
150
root -1.39966 18.137 5.15032 -1.29998 -12.5619 -4.24972
lowerback 12.6237 -0.949287 -1.35056
upperback 7.07857 -1.48354 -3.54626
thorax 0.283198 -0.736721 -2.75061
lowerneck -2.55748 -13.0392 -10.207
upperneck 30.9363 -22.0887 13.5422
head 13.7207 -9.91581 3.86274
rclavicle -7.55382e-015 9.54166e-015
rhumerus -22.5268 69.9021 -59.3881
rradius 109.555
rwrist -83.9067
rhand 33.0296 -30.9194
rfingers 7.12502
rthumb 56.4081 -47.9881
lclavicle -7.55382e-015 9.54166e-015
lhumerus -25.6045 -65.4329 105.75
lradius 103.742
lwrist 10.1751
lhand -10.7596 -36.0409
lfingers 7.12502
lthumb 15.252 -6.62321
rfemur 14.3956 5.29995 22.1348
rtibia -13.3829
rfoot -6.59217 -13.0182
rtoes -0.122995
lfemur 19.4924 -0.373679 -11.3403
ltibia -17.8839
lfoot -3.617 21.6595
ltoes -8.62676
